<?xml version="1.0" encoding="utf-8"?>
<!-- Generator: Adobe Illustrator 21.0.0, SVG Export Plug-In . SVG Version: 6.00 Build 0)  -->
<svg version="1.1" id="Layer_1" xmlns="http://www.w3.org/2000/svg" xmlns:xlink="http://www.w3.org/1999/xlink" x="0px" y="0px"
	 viewBox="0 0 64 32" style="enable-background:new 0 0 64 32;" xml:space="preserve">
<path d="M20.9,12.6c4.6-1.2,8.6-10.8-0.1-10.8c-2.8,0-5.5,1.5-5.5,1.5L13,17.9C9.5,18.2,6,20.6,6,25.1c0,10.5,22.2,8.4,22.2-5.1
	C28.3,16.1,25.1,12.4,20.9,12.6z M16.8,3.7c1.9-0.8,2.9-1,4-1c5.5,0,3.9,9.5-4.9,10.5c-0.1,0-0.4,0-0.6,0.1
	C15.3,13.3,16.8,3.7,16.8,3.7z M7.8,25.1c0-4.1,2.4-6,5-6.2l-1.4,8.5c0,0-0.1,0.6-0.1,0.6c0.1,0.6,0.7,1,1.2,1
	c0.3,0,0.4-0.6,0.5-1.3l1.4-8.8c2.1,0.4,3.9,1.8,3.9,4.1c0,1.2-0.6,2.5-1.4,3.1c-0.2,0.1-0.5,0.4-0.3,0.6c0.2,0.2,1-0.1,1.4-0.4
	c1-0.7,2-1.9,2-3.5c0-3.1-2.5-4.8-5.4-5l0.5-3.3c0.6-0.1,2.2-0.3,3.9-0.6c4.4-0.8,7.1,2.8,7.1,6.5C26.1,32.2,7.8,34.3,7.8,25.1z
	 M55,12c-2.6,0-4.8,0.8-7,5c0,0,0.5-2.4,1-5.3c0.2,0.1,0.4,0.2,0.6,0.2c2.4,0,4.6-6.7,4.6-6.7s2.9,0.9,2.9,3c0,1.7-0.8,2.7-2.6,2.7
	c-1.3,0-1.8-0.6-2-0.6c-0.3,0,0.1,1.2,2.1,1.2c3.9,0,5.6-4.1,5.6-5c0-0.1-0.1-0.2-0.2-0.2c-0.2,0-0.2,0.2-0.3,0.4
	c-0.4,1.3-1.6,2.3-1.6,2.3s0.4-0.6,0.4-1.4c0-2.4-4.1-3.9-4.1-3.9s0.3-1,0.3-1.8c0-1.1-0.6-1.7-1.7-1.7c-0.7,0-1.6,0.6-1.6,2.1
	c0,1.6,1.6,2.4,1.6,2.4s-2.1,6.3-3.6,6.3c-0.4,0-0.4-0.6-0.4-0.6s1.4-7.6,1.4-8.1c0-0.2-0.1-0.3-0.2-0.3c-0.4,0-1.1,0.1-1.3,0.4
	s-0.4,1.4-0.4,1.4s-0.3-1.4-1.9-1.4c-2.8,0-4.7,3.9-4.7,7c0,1.2,0.4,2,0.4,2s-0.6,0.9-1,0.9c-1.7,0,0.6-8,0.6-8.6
	c0-0.1-0.1-0.1-0.3-0.1c-0.4,0-1.2,0.2-1.4,0.6c-0.3,0.5-1.6,8.9-3.9,8.9c-2.4,0,0.3-8.3,0.3-8.6c0-0.2-0.2-0.3-0.5-0.3
	c-0.4,0-1.1,0.1-1.2,0.5c-0.3,0.6-0.7,2.8-1.9,2.8c-0.3,0-0.4-0.3-0.4-0.3C32.3,5.9,31.4,5,30.1,5c-3.6,0-4.7,4-4.7,6.7
	c0,2,1.3,3.5,3.3,3.5c2.2,0,4.2-2.7,4.2-6.3C33,8.5,32.9,8,32.9,8s0.2,0.1,0.4,0.1c0.9,0,1.1-0.7,1.1-0.7s-0.7,2-0.7,3.7
	c0,1.6,0.5,3,2.5,3c2.3,0,3.3-4,3.3-4s-0.5,3.4,1.4,3.4c0.9,0,2-1.6,2-1.6s0.6,0.9,1.9,0.9c2.2,0,2.8-2.3,2.8-2.3s-2,13.2-2,13.4
	c0,0.4,0.2,0.4,0.3,0.4c0.7,0,1.1-0.7,1.2-1.4c1.3-7.6,4.1-9.8,7.1-9.8c3.2,0,5,2.6,5.4,2.6C60.2,15.9,58.9,12,55,12z M52.4,1.8
	c0-0.5,0.3-0.7,0.8-0.7C53.6,1.1,54,1.3,54,2c0,0.4-0.3,1.4-0.3,1.4S52.4,2.6,52.4,1.8z M28.7,14.4c-2.8,0-1.5-8.5,1.6-8.5
	C32.6,5.9,31.4,14.4,28.7,14.4z M45.4,11.9c-2.8,0-1.3-8.5,1.9-8.5c0.9,0,1.3,1.5,1.3,1.5l-0.7,3.9C47.9,8.8,46.7,11.9,45.4,11.9z
	 M3.1,12.1h0.9v2.2h0.8v-2.2h0.9v-0.7H3.1V12.1z M6.9,13.2h1.1v1.1h0.8v-2.9H7.9v1.1H6.9v-1.1H6v2.9h0.8V13.2z M11.8,13.6h-1.6v-0.5
	h1.4v-0.6h-1.4v-0.4h1.6v-0.7H9.4v2.9h2.4L11.8,13.6z M52.4,18.9c-0.4,0-0.7-0.4-0.7-0.8l0,0c0-0.4,0.3-0.8,0.7-0.8
	c0.3,0,0.5,0.1,0.6,0.4l0.6-0.5c-0.3-0.4-0.6-0.6-1.2-0.6c-0.9,0-1.6,0.7-1.6,1.5l0,0c0,0.9,0.7,1.5,1.5,1.5c0.6,0,1-0.3,1.3-0.7
	l-0.6-0.4C52.9,18.8,52.7,18.9,52.4,18.9z M55.4,16.6c-0.9,0-1.6,0.7-1.6,1.5l0,0c0,0.9,0.7,1.5,1.6,1.5s1.6-0.7,1.6-1.5l0,0
	C57,17.2,56.3,16.6,55.4,16.6z M56.1,18.1c0,0.4-0.3,0.8-0.7,0.8s-0.8-0.4-0.8-0.8l0,0c0-0.4,0.3-0.8,0.8-0.8
	C55.8,17.3,56.1,17.7,56.1,18.1L56.1,18.1z M58,19.2c0,0.2-0.2,0.4-0.4,0.4s-0.4-0.2-0.4-0.4s0.2-0.4,0.4-0.4S58,18.9,58,19.2z"/>
</svg>
